<svg xmlns="http://www.w3.org/2000/svg" viewBox="0 0 224.75 117.96"><g id="Ebene_2" data-name="Ebene 2"><g id="text"><path d="M21.24,48.12l-13-16.26V48.12H0V0H8.28V30.36L21.12,15.12h10L17.46,30.84l14,17.28Z"/><path d="M32.46,31.62c0-10.14,7.44-17.28,17-17.28s17,7.14,17,17.28S59.16,49,49.5,49,32.46,41.76,32.46,31.62Zm25.68,0c0-6.24-4.2-9.78-8.64-9.78s-8.7,3.54-8.7,9.78,4.26,9.78,8.7,9.78S58.14,37.8,58.14,31.62Z"/><path d="M73.26,15.12h6.6l.84,5h.12a10.3,10.3,0,0,1,9.12-5.4,9.86,9.86,0,0,1,2.4.24v7.74a13.1,13.1,0,0,0-2.64-.24c-4.14,0-8.16,2.34-8.16,8.64v17H73.26Z"/><path d="M125.94,34H102.78c1.14,5.28,5.4,8.22,10.86,8.22a18.33,18.33,0,0,0,10.5-3.6v7.08A21.44,21.44,0,0,1,112.68,49c-11.16,0-17.82-7.14-17.82-17.22,0-10.56,7.38-17.4,16.38-17.4,8.22,0,14.94,5.76,14.94,16.68A21.71,21.71,0,0,1,125.94,34Zm-7.68-5.22c-.12-5.1-3.24-7.8-7.08-7.8-4.08,0-7.56,3-8.46,7.8Z"/><path d="M131,31.68c0-10.5,7.26-17.34,14.76-17.34A12.75,12.75,0,0,1,157,20.52l.84-5.4h7v33h-7l-.84-5.4A12.8,12.8,0,0,1,145.8,49C138.3,49,131,42.06,131,31.68Zm25.56-.06c0-5.76-3.66-9.78-8.52-9.78s-8.7,4.08-8.7,9.78,3.72,9.78,8.7,9.78S156.6,37.38,156.6,31.62Z"/><path d="M21.24,117.12l-13-16.26v16.26H0V69H8.28V99.36L21.12,84.12h10L17.46,99.84l14,17.28Z"/><path d="M32.46,100.62c0-10.14,7.44-17.28,17-17.28s17,7.14,17,17.28S59.16,118,49.5,118,32.46,110.76,32.46,100.62Zm25.68,0c0-6.24-4.2-9.78-8.64-9.78s-8.7,3.54-8.7,9.78,4.26,9.78,8.7,9.78S58.14,106.8,58.14,100.62Z"/><path d="M102.36,95.1v22H94.08V97.62c0-4.56-2-6.72-6-6.72a6.29,6.29,0,0,0-6.54,6.48v19.74H73.26v-33h6.42l.9,4.74h.18a11.64,11.64,0,0,1,10-5.52C97.92,83.34,102.36,87.84,102.36,95.1Z"/><path d="M112.68,91h-4.56v-6.9h4.62V80.28c0-6.3,4.5-11.76,12.36-11.76a20.33,20.33,0,0,1,6.06,1v7.14a14.63,14.63,0,0,0-4.68-.78c-3.66,0-5.58,1.56-5.58,5.22v3.06h8.94V91H121v26.1h-8.28Z"/><path d="M135.18,69h8.28v48.12h-8.28Z"/><path d="M151.74,74a4.65,4.65,0,0,1,9.3,0,4.65,4.65,0,0,1-9.3,0Zm.54,10.08h8.28v33h-8.28Z"/><path d="M190.5,117.12l-13-16.26v16.26h-8.28V69h8.28V99.36l12.84-15.24h10L186.72,99.84l14,17.28Z"/><path d="M215.16,84.12h9V91h-9v13.32c0,4.44,2.82,6.18,6.65,6.18a17.35,17.35,0,0,0,2.94-.3v7.08a21.06,21.06,0,0,1-4.73.48c-8.22,0-12.9-4.92-12.9-13V91h-4.8v-6.9h4.86V76.44h8Z"/></g></g></svg>