<svg xmlns="http://www.w3.org/2000/svg" xmlns:xlink="http://www.w3.org/1999/xlink" viewBox="0 0 958.76 335.02"><defs><style>.cls-1{fill:url(#Unbenannter_Verlauf_20);}.cls-2{fill:url(#Unbenannter_Verlauf_20-2);}.cls-3{fill:url(#Unbenannter_Verlauf_10);}.cls-4{fill:url(#Unbenannter_Verlauf_10-2);}.cls-5{fill:url(#Unbenannter_Verlauf_10-3);}.cls-6{fill:url(#Unbenannter_Verlauf_20-3);}.cls-7{fill:url(#Unbenannter_Verlauf_10-4);}.cls-8{fill:url(#Unbenannter_Verlauf_20-4);}</style><linearGradient id="Unbenannter_Verlauf_20" x1="126.88" y1="-112.99" x2="126.88" y2="140.77" gradientUnits="userSpaceOnUse"><stop offset="0" stop-color="#e6e6e6"/><stop offset="1" stop-color="#a8c9e2"/></linearGradient><linearGradient id="Unbenannter_Verlauf_20-2" x1="361.88" y1="-114.99" x2="361.88" y2="138.77" xlink:href="#Unbenannter_Verlauf_20"/><linearGradient id="Unbenannter_Verlauf_10" x1="242.88" y1="162.78" x2="242.88" y2="416.54" gradientUnits="userSpaceOnUse"><stop offset="0" stop-color="#a8c9e2"/><stop offset="1" stop-color="#355275"/></linearGradient><linearGradient id="Unbenannter_Verlauf_10-2" x1="477.88" y1="157.78" x2="477.88" y2="411.54" xlink:href="#Unbenannter_Verlauf_10"/><linearGradient id="Unbenannter_Verlauf_10-3" x1="713.88" y1="156.01" x2="713.88" y2="409.77" xlink:href="#Unbenannter_Verlauf_10"/><linearGradient id="Unbenannter_Verlauf_20-3" x1="831.88" y1="-109.99" x2="831.88" y2="143.77" xlink:href="#Unbenannter_Verlauf_20"/><linearGradient id="Unbenannter_Verlauf_10-4" x1="888.31" y1="176.28" x2="888.31" y2="418.98" xlink:href="#Unbenannter_Verlauf_10"/><linearGradient id="Unbenannter_Verlauf_20-4" x1="597.88" y1="-107.99" x2="597.88" y2="145.77" xlink:href="#Unbenannter_Verlauf_20"/></defs><g id="Ebene_2" data-name="Ebene 2"><g id="papier"><path class="cls-1" d="M245.82,49.33a58.54,58.54,0,0,1,7.94-3.3c-18.92-26.13-60.56-26.13-79.55.13a58.07,58.07,0,0,1,7.94,3.31,41.4,41.4,0,0,1,63.67-.14Zm-23.55,21c.8-1.28,1.64-2.52,2.55-3.73a12.51,12.51,0,0,0-21.67,0q1.36,1.82,2.55,3.73A61.3,61.3,0,0,1,222.27,70.3Zm8.54-21.56a31.16,31.16,0,0,0-40.13,5.65,59,59,0,0,1,6.62,5.49,22.09,22.09,0,0,1,31.16-2.27,21.25,21.25,0,0,1,2.28,2.27,58.86,58.86,0,0,1,6.61-5.49A29.66,29.66,0,0,0,230.81,48.74Zm15,106.21a58.59,58.59,0,0,1,7.94-3.31c-19-26.26-60.56-26.26-79.55,0a58.07,58.07,0,0,1,7.94,3.31,41.41,41.41,0,0,1,58.32-5.33,40.44,40.44,0,0,1,5.35,5.36ZM87.06,66.57q1.35,1.82,2.54,3.73a61.89,61.89,0,0,1,16.54,0c.8-1.28,1.64-2.52,2.55-3.73A12.51,12.51,0,0,0,87,66.6ZM58.11,99h0a58.07,58.07,0,0,1,7.94,3.31,41.38,41.38,0,0,1,63.64,0A58.59,58.59,0,0,1,137.63,99C118.61,72.82,77.13,72.82,58.11,99Zm29.57,8.5a22.11,22.11,0,0,1,26.9,5.29,57,57,0,0,1,6.61-5.49,31.12,31.12,0,0,0-43.94-2.63,29.67,29.67,0,0,0-2.63,2.63,57.9,57.9,0,0,1,6.62,5.49A21.23,21.23,0,0,1,87.68,107.45ZM58.11,46.12h0a59.35,59.35,0,0,1,7.94,3.31,41.42,41.42,0,0,1,58.33-5.31,41,41,0,0,1,5.31,5.31,59.9,59.9,0,0,1,7.94-3.31C118.61,19.9,77.13,19.9,58.11,46.12Zm29.57,8.51a22.11,22.11,0,0,1,26.9,5.29,57,57,0,0,1,6.61-5.49,31.07,31.07,0,0,0-46.57,0,57.9,57.9,0,0,1,6.62,5.49A21.09,21.09,0,0,1,87.68,54.63ZM87,119.42q1.37,1.81,2.55,3.74a61.07,61.07,0,0,1,16.54,0q1.19-1.92,2.55-3.74a12.48,12.48,0,0,0-21.64,0Zm143.82-17.83a31.16,31.16,0,0,0-40.12,5.66,57,57,0,0,1,6.61,5.49,22.11,22.11,0,0,1,31.17-2.28,23.26,23.26,0,0,1,2.27,2.28,57.9,57.9,0,0,1,6.62-5.49,29.79,29.79,0,0,0-6.58-5.69ZM58.11,151.77h0a58.07,58.07,0,0,1,7.94,3.31,41.38,41.38,0,0,1,63.64,0,58.59,58.59,0,0,1,7.94-3.31C118.61,125.51,77.13,125.74,58.11,151.77Zm164.16-28.64c.8-1.28,1.64-2.53,2.55-3.74a12.47,12.47,0,0,0-21.67,0q1.36,1.81,2.55,3.74A61.3,61.3,0,0,1,222.27,123.13Zm23.55-21a58.59,58.59,0,0,1,7.94-3.31c-18.92-26-60.56-26-79.55.13a58.07,58.07,0,0,1,7.94,3.31,41.37,41.37,0,0,1,63.67-.13ZM0,125.34H0a59.9,59.9,0,0,1,7.94,3.31,41.41,41.41,0,0,1,63.64,0,59.35,59.35,0,0,1,7.94-3.31C60.56,99.08,19.05,99.28,0,125.34Zm28.94,20.48c.91,1.21,1.75,2.46,2.55,3.73a61.89,61.89,0,0,1,16.54,0c.79-1.27,1.64-2.52,2.54-3.73a12.5,12.5,0,0,0-21.63,0Zm.66-12a22.08,22.08,0,0,1,26.89,5.3,58,58,0,0,1,6.62-5.5A31.13,31.13,0,0,0,19.17,131a32.63,32.63,0,0,0-2.63,2.63,57,57,0,0,1,6.61,5.5A21.16,21.16,0,0,1,29.6,133.84ZM172.76,75.17a31.15,31.15,0,0,0-40.12,5.65,58.86,58.86,0,0,1,6.61,5.49A22.09,22.09,0,0,1,170.41,84a21.25,21.25,0,0,1,2.28,2.27,59,59,0,0,1,6.62-5.49A29.94,29.94,0,0,0,172.76,75.17Zm-8.54-31.26q1.2-1.92,2.55-3.74a12.49,12.49,0,0,0-21.66,0q1.35,1.81,2.54,3.74a61.07,61.07,0,0,1,16.54,0Zm0,52.92c.8-1.28,1.65-2.52,2.55-3.74a12.49,12.49,0,0,0-21.66,0c.9,1.22,1.75,2.46,2.54,3.74a61.48,61.48,0,0,1,16.54-.1Zm23.55,31.82a60.47,60.47,0,0,1,7.94-3.31c-19-26.06-60.59-26.06-79.58,0a58.54,58.54,0,0,1,7.94,3.3,41.41,41.41,0,0,1,63.67-.13Zm-15-106.31A31.16,31.16,0,0,0,132.64,28a57.8,57.8,0,0,1,6.61,5.49,22.09,22.09,0,0,1,33.44,0A57.9,57.9,0,0,1,179.31,28,30,30,0,0,0,172.76,22.34Zm15,53.39a59.13,59.13,0,0,1,7.94-3.31c-19-26.06-60.59-26.06-79.58.13a59.9,59.9,0,0,1,7.94,3.31,41.41,41.41,0,0,1,63.67-.13Zm0-52.92a59.13,59.13,0,0,1,7.94-3.31c-19-26.07-60.59-26.07-79.58.4a58.54,58.54,0,0,1,7.94,3.3,41.41,41.41,0,0,1,63.67-.29Zm-42.7,123c.91,1.21,1.76,2.46,2.55,3.73a61.89,61.89,0,0,1,16.54,0c.79-1.27,1.64-2.52,2.54-3.73a12.5,12.5,0,0,0-21.63,0Zm85.64,19.84a57,57,0,0,1,6.61-5.49,31.09,31.09,0,0,0-43.89-2.68,32.27,32.27,0,0,0-2.68,2.68,57.9,57.9,0,0,1,6.62,5.49,22.08,22.08,0,0,1,31.15-2.38,21.16,21.16,0,0,1,2.19,2.15Zm-27.56,6.62q1.36,1.82,2.55,3.74a61.07,61.07,0,0,1,16.54,0q1.19-1.92,2.55-3.74a12.51,12.51,0,0,0-21.64,0ZM87,172.28q1.37,1.82,2.55,3.74a61.07,61.07,0,0,1,16.54,0q1.19-1.92,2.55-3.74a12.51,12.51,0,0,0-21.64,0Zm27.56-6.62a57,57,0,0,1,6.61-5.49,31.12,31.12,0,0,0-43.94-2.63,29.67,29.67,0,0,0-2.63,2.63,57.9,57.9,0,0,1,6.62,5.49,22.08,22.08,0,0,1,31.15-2.38,21.16,21.16,0,0,1,2.19,2.15Zm58.08-26.46a57,57,0,0,1,6.61-5.49A31.09,31.09,0,0,0,135.38,131a32.27,32.27,0,0,0-2.68,2.68,57.9,57.9,0,0,1,6.62,5.49A22.09,22.09,0,0,1,170.49,137a21.41,21.41,0,0,1,2.13,2.13Z"/><path class="cls-2" d="M480.82,49.33a58.54,58.54,0,0,1,7.94-3.3c-18.92-26.13-60.56-26.13-79.55.13a58.07,58.07,0,0,1,7.94,3.31,41.4,41.4,0,0,1,63.67-.14Zm-23.55,21c.8-1.28,1.64-2.52,2.55-3.73a12.51,12.51,0,0,0-21.67,0q1.37,1.82,2.55,3.73A61.3,61.3,0,0,1,457.27,70.3Zm8.54-21.56a31.16,31.16,0,0,0-40.13,5.65,59,59,0,0,1,6.62,5.49,22.09,22.09,0,0,1,31.16-2.27,21.25,21.25,0,0,1,2.28,2.27,58.86,58.86,0,0,1,6.61-5.49A29.66,29.66,0,0,0,465.81,48.74Zm15,106.21a58.59,58.59,0,0,1,7.94-3.31c-19-26.26-60.56-26.26-79.55,0a58.07,58.07,0,0,1,7.94,3.31,41.41,41.41,0,0,1,58.32-5.33,40.44,40.44,0,0,1,5.35,5.36ZM322.06,66.57q1.35,1.82,2.54,3.73a61.89,61.89,0,0,1,16.54,0c.8-1.28,1.64-2.52,2.55-3.73a12.51,12.51,0,0,0-21.67,0ZM293.11,99h0a58.07,58.07,0,0,1,7.94,3.31,41.38,41.38,0,0,1,63.64,0A58.59,58.59,0,0,1,372.63,99C353.61,72.82,312.13,72.82,293.11,99Zm29.57,8.5a22.11,22.11,0,0,1,26.9,5.29,57,57,0,0,1,6.61-5.49,31.12,31.12,0,0,0-43.94-2.63,29.67,29.67,0,0,0-2.63,2.63,57.9,57.9,0,0,1,6.62,5.49A21.23,21.23,0,0,1,322.68,107.45ZM293.11,46.12h0a59.35,59.35,0,0,1,7.94,3.31,41.42,41.42,0,0,1,58.33-5.31,41,41,0,0,1,5.31,5.31,59.9,59.9,0,0,1,7.94-3.31C353.61,19.9,312.13,19.9,293.11,46.12Zm29.57,8.51a22.11,22.11,0,0,1,26.9,5.29,57,57,0,0,1,6.61-5.49,31.07,31.07,0,0,0-46.57,0,57.9,57.9,0,0,1,6.62,5.49A21.09,21.09,0,0,1,322.68,54.63ZM322,119.42q1.37,1.81,2.55,3.74a61.07,61.07,0,0,1,16.54,0q1.18-1.92,2.55-3.74a12.48,12.48,0,0,0-21.64,0Zm143.82-17.83a31.16,31.16,0,0,0-40.12,5.66,57,57,0,0,1,6.61,5.49,22.11,22.11,0,0,1,31.17-2.28,23.26,23.26,0,0,1,2.27,2.28,57.9,57.9,0,0,1,6.62-5.49,29.79,29.79,0,0,0-6.58-5.69ZM293.11,151.77h0a58.07,58.07,0,0,1,7.94,3.31,41.38,41.38,0,0,1,63.64,0,58.59,58.59,0,0,1,7.94-3.31C353.61,125.51,312.13,125.74,293.11,151.77Zm164.16-28.64c.8-1.28,1.64-2.53,2.55-3.74a12.47,12.47,0,0,0-21.67,0q1.37,1.81,2.55,3.74A61.3,61.3,0,0,1,457.27,123.13Zm23.55-21a58.59,58.59,0,0,1,7.94-3.31c-18.92-26-60.56-26-79.55.13a58.07,58.07,0,0,1,7.94,3.31,41.37,41.37,0,0,1,63.67-.13ZM235,72.52h0a58.59,58.59,0,0,1,7.94,3.31,41.41,41.41,0,0,1,63.64,0,58.07,58.07,0,0,1,7.94-3.31C295.56,46.36,254.05,46.36,235,72.52ZM264.57,81a22.09,22.09,0,0,1,26.89,5.29,59,59,0,0,1,6.62-5.49,31.13,31.13,0,0,0-43.94-2.6,31.89,31.89,0,0,0-2.6,2.6,58,58,0,0,1,6.61,5.49A21.27,21.27,0,0,1,264.6,81ZM235,125.34h0a59.9,59.9,0,0,1,7.94,3.31,41.41,41.41,0,0,1,63.64,0,59.35,59.35,0,0,1,7.94-3.31C295.56,99.08,254.05,99.28,235,125.34ZM263.94,93c.91,1.22,1.75,2.46,2.55,3.74a61.07,61.07,0,0,1,16.54,0c.79-1.28,1.64-2.52,2.54-3.74a12.51,12.51,0,0,0-21.63,0Zm0,52.83c.91,1.21,1.75,2.46,2.55,3.73a61.89,61.89,0,0,1,16.54,0c.79-1.27,1.64-2.52,2.54-3.73a12.5,12.5,0,0,0-21.63,0Zm.66-12a22.08,22.08,0,0,1,26.89,5.3,58,58,0,0,1,6.62-5.5A31.13,31.13,0,0,0,254.17,131a32.63,32.63,0,0,0-2.63,2.63,57,57,0,0,1,6.61,5.5A21.16,21.16,0,0,1,264.6,133.84ZM407.76,75.17a31.15,31.15,0,0,0-40.12,5.65,58.86,58.86,0,0,1,6.61,5.49A22.09,22.09,0,0,1,405.41,84a21.25,21.25,0,0,1,2.28,2.27,59,59,0,0,1,6.62-5.49A29.94,29.94,0,0,0,407.76,75.17Zm-8.54-31.26q1.2-1.92,2.55-3.74a12.49,12.49,0,0,0-21.66,0q1.35,1.81,2.54,3.74a61.07,61.07,0,0,1,16.54,0Zm0,52.92c.8-1.28,1.65-2.52,2.55-3.74a12.49,12.49,0,0,0-21.66,0c.9,1.22,1.75,2.46,2.54,3.74a61.48,61.48,0,0,1,16.54-.1Zm23.55,31.82a60.47,60.47,0,0,1,7.94-3.31c-19-26.06-60.59-26.06-79.58,0a58.54,58.54,0,0,1,7.94,3.3,41.41,41.41,0,0,1,63.67-.13Zm-15-106.31A31.16,31.16,0,0,0,367.64,28a57.8,57.8,0,0,1,6.61,5.49,22.09,22.09,0,0,1,33.44,0A57.9,57.9,0,0,1,414.31,28,30,30,0,0,0,407.76,22.34Zm15,53.39a59.13,59.13,0,0,1,7.94-3.31c-19-26.06-60.59-26.06-79.58.13a59.9,59.9,0,0,1,7.94,3.31,41.41,41.41,0,0,1,63.67-.13Zm0-52.92a59.13,59.13,0,0,1,7.94-3.31c-19-26.07-60.59-26.07-79.58.4a58.54,58.54,0,0,1,7.94,3.3,41.41,41.41,0,0,1,63.67-.29Zm-42.7,123c.91,1.21,1.76,2.46,2.55,3.73a61.89,61.89,0,0,1,16.54,0c.79-1.27,1.64-2.52,2.54-3.73a12.5,12.5,0,0,0-21.63,0Zm85.64,19.84a57,57,0,0,1,6.61-5.49,31.09,31.09,0,0,0-43.89-2.68,32.27,32.27,0,0,0-2.68,2.68,57.9,57.9,0,0,1,6.62,5.49,22.08,22.08,0,0,1,31.15-2.38,21.16,21.16,0,0,1,2.19,2.15Zm-27.56,6.62q1.37,1.82,2.55,3.74a61.07,61.07,0,0,1,16.54,0q1.18-1.92,2.55-3.74a12.51,12.51,0,0,0-21.64,0Zm-116.13,0q1.37,1.82,2.55,3.74a61.07,61.07,0,0,1,16.54,0q1.18-1.92,2.55-3.74a12.51,12.51,0,0,0-21.64,0Zm27.56-6.62a57,57,0,0,1,6.61-5.49,31.12,31.12,0,0,0-43.94-2.63,29.67,29.67,0,0,0-2.63,2.63,57.9,57.9,0,0,1,6.62,5.49,22.08,22.08,0,0,1,31.15-2.38,21.16,21.16,0,0,1,2.19,2.15Zm58.08-26.46a57,57,0,0,1,6.61-5.49A31.09,31.09,0,0,0,370.38,131a32.27,32.27,0,0,0-2.68,2.68,57.9,57.9,0,0,1,6.62,5.49A22.09,22.09,0,0,1,405.49,137a21.41,21.41,0,0,1,2.13,2.13Z"/><path class="cls-3" d="M361.82,208.33a58.54,58.54,0,0,1,7.94-3.3c-18.92-26.13-60.56-26.13-79.55.13a58.07,58.07,0,0,1,7.94,3.31,41.4,41.4,0,0,1,63.67-.14Zm-23.55,21c.8-1.28,1.64-2.52,2.55-3.73a12.51,12.51,0,0,0-21.67,0q1.37,1.81,2.55,3.73A61.3,61.3,0,0,1,338.27,229.3Zm8.54-21.56a31.16,31.16,0,0,0-40.13,5.65,59,59,0,0,1,6.62,5.49,22.09,22.09,0,0,1,31.16-2.27,21.25,21.25,0,0,1,2.28,2.27,58.86,58.86,0,0,1,6.61-5.49A29.66,29.66,0,0,0,346.81,207.74ZM203.06,225.57q1.35,1.81,2.54,3.73a61.89,61.89,0,0,1,16.54,0c.8-1.28,1.64-2.52,2.55-3.73a12.51,12.51,0,0,0-21.67,0ZM174.11,258h0a58.07,58.07,0,0,1,7.94,3.31,41.38,41.38,0,0,1,63.64,0,58.59,58.59,0,0,1,7.94-3.31C234.61,231.82,193.13,231.82,174.11,258Zm29.57,8.5a22.11,22.11,0,0,1,26.9,5.29,57,57,0,0,1,6.61-5.49,31.12,31.12,0,0,0-43.94-2.63,29.67,29.67,0,0,0-2.63,2.63,57.9,57.9,0,0,1,6.62,5.49A21.23,21.23,0,0,1,203.68,266.45Zm-29.57-61.33h0a59.35,59.35,0,0,1,7.94,3.31,41.42,41.42,0,0,1,58.33-5.31,41,41,0,0,1,5.31,5.31,59.9,59.9,0,0,1,7.94-3.31C234.61,178.9,193.13,178.9,174.11,205.12Zm29.57,8.51a22.11,22.11,0,0,1,26.9,5.29,57,57,0,0,1,6.61-5.49,31.07,31.07,0,0,0-46.57,0,57.9,57.9,0,0,1,6.62,5.49A21.09,21.09,0,0,1,203.68,213.63ZM203,278.42q1.36,1.81,2.55,3.74a61.07,61.07,0,0,1,16.54,0q1.19-1.92,2.55-3.74a12.48,12.48,0,0,0-21.64,0Zm143.82-17.83a31.16,31.16,0,0,0-40.12,5.66,57,57,0,0,1,6.61,5.49,22.11,22.11,0,0,1,31.17-2.28,23.26,23.26,0,0,1,2.27,2.28,57.9,57.9,0,0,1,6.62-5.49,29.79,29.79,0,0,0-6.58-5.69Zm-8.57,21.54c.8-1.28,1.64-2.53,2.55-3.74a12.47,12.47,0,0,0-21.67,0q1.37,1.82,2.55,3.74A61.3,61.3,0,0,1,338.27,282.13Zm23.55-21a58.59,58.59,0,0,1,7.94-3.31c-18.92-26-60.56-26-79.55.13a58.07,58.07,0,0,1,7.94,3.31,41.37,41.37,0,0,1,63.67-.13ZM116,231.52h0a58.59,58.59,0,0,1,7.94,3.31,41.41,41.41,0,0,1,63.64,0,58.07,58.07,0,0,1,7.94-3.31C176.56,205.36,135.05,205.36,116,231.52Zm29.57,8.5a22.09,22.09,0,0,1,26.89,5.29,59,59,0,0,1,6.62-5.49,31.13,31.13,0,0,0-43.94-2.6,31.89,31.89,0,0,0-2.6,2.6,58,58,0,0,1,6.61,5.49A21.27,21.27,0,0,1,145.6,240ZM116,284.34h0a59.9,59.9,0,0,1,7.94,3.31,41.41,41.41,0,0,1,63.64,0,59.35,59.35,0,0,1,7.94-3.31C176.56,258.08,135.05,258.28,116,284.34Zm0-105.64h0a59.85,59.85,0,0,1,7.94,3.3,41.41,41.41,0,0,1,58.32-5.31,42.36,42.36,0,0,1,5.32,5.31,59.3,59.3,0,0,1,7.94-3.3C176.56,152.43,135.05,152.43,116,178.7ZM144.94,252c.91,1.22,1.75,2.46,2.55,3.74a61.07,61.07,0,0,1,16.54,0c.79-1.28,1.64-2.52,2.54-3.74a12.51,12.51,0,0,0-21.63,0Zm.66-64.79a22.09,22.09,0,0,1,26.89,5.29,57.9,57.9,0,0,1,6.62-5.49,31.12,31.12,0,0,0-43.94-2.63,29.67,29.67,0,0,0-2.63,2.63,57,57,0,0,1,6.61,5.49,21.3,21.3,0,0,1,6.45-5.26Zm-.66,12c.91,1.21,1.75,2.46,2.55,3.74a61.07,61.07,0,0,1,16.54,0q1.18-1.92,2.54-3.74a12.51,12.51,0,0,0-21.63,0Zm0,105.65c.91,1.21,1.75,2.46,2.55,3.73a61.89,61.89,0,0,1,16.54,0c.79-1.27,1.64-2.52,2.54-3.73a12.5,12.5,0,0,0-21.63,0Zm.66-12a22.08,22.08,0,0,1,26.89,5.3,58,58,0,0,1,6.62-5.5A31.13,31.13,0,0,0,135.17,290a32.63,32.63,0,0,0-2.63,2.63,57,57,0,0,1,6.61,5.5A21.16,21.16,0,0,1,145.6,292.84Zm143.16-58.67a31.15,31.15,0,0,0-40.12,5.65,58.86,58.86,0,0,1,6.61,5.49A22.09,22.09,0,0,1,286.41,243a21.25,21.25,0,0,1,2.28,2.27,59,59,0,0,1,6.62-5.49A29.94,29.94,0,0,0,288.76,234.17Zm-8.54-31.26q1.2-1.92,2.55-3.74a12.49,12.49,0,0,0-21.66,0q1.35,1.82,2.54,3.74a61.07,61.07,0,0,1,16.54,0Zm0,52.92c.8-1.28,1.65-2.52,2.55-3.74a12.49,12.49,0,0,0-21.66,0c.9,1.22,1.75,2.46,2.54,3.74a61.48,61.48,0,0,1,16.54-.1Zm23.55,31.82a60.47,60.47,0,0,1,7.94-3.31c-19-26.06-60.59-26.06-79.58,0a58.54,58.54,0,0,1,7.94,3.3,41.41,41.41,0,0,1,63.67-.13Zm-15-106.31A31.16,31.16,0,0,0,248.64,187a57.8,57.8,0,0,1,6.61,5.49,22.09,22.09,0,0,1,33.44,0,57.9,57.9,0,0,1,6.62-5.49A30,30,0,0,0,288.76,181.34Zm15,53.39a59.13,59.13,0,0,1,7.94-3.31c-19-26.06-60.59-26.06-79.58.13a59.9,59.9,0,0,1,7.94,3.31,41.41,41.41,0,0,1,63.67-.13Zm0-52.92a59.13,59.13,0,0,1,7.94-3.31c-19-26.07-60.59-26.07-79.58.4a58.54,58.54,0,0,1,7.94,3.3,41.41,41.41,0,0,1,63.67-.29Zm-42.7,123c.91,1.21,1.76,2.46,2.55,3.73a61.89,61.89,0,0,1,16.54,0c.79-1.27,1.64-2.52,2.54-3.73a12.5,12.5,0,0,0-21.63,0Zm27.59-6.62a57,57,0,0,1,6.61-5.49A31.09,31.09,0,0,0,251.38,290a32.27,32.27,0,0,0-2.68,2.68,57.9,57.9,0,0,1,6.62,5.49A22.09,22.09,0,0,1,286.49,296a21.41,21.41,0,0,1,2.13,2.13Z"/><path class="cls-4" d="M596.82,208.33a58.54,58.54,0,0,1,7.94-3.3c-18.92-26.13-60.56-26.13-79.55.13a58.07,58.07,0,0,1,7.94,3.31,41.4,41.4,0,0,1,63.67-.14Zm-23.55,21c.8-1.28,1.64-2.52,2.55-3.73a12.51,12.51,0,0,0-21.67,0q1.36,1.81,2.55,3.73A61.3,61.3,0,0,1,573.27,229.3Zm8.54-21.56a31.16,31.16,0,0,0-40.13,5.65,59,59,0,0,1,6.62,5.49,22.09,22.09,0,0,1,31.16-2.27,21.25,21.25,0,0,1,2.28,2.27,58.86,58.86,0,0,1,6.61-5.49A29.66,29.66,0,0,0,581.81,207.74ZM438.06,225.57q1.35,1.81,2.54,3.73a61.89,61.89,0,0,1,16.54,0c.8-1.28,1.64-2.52,2.55-3.73a12.51,12.51,0,0,0-21.67,0ZM409.11,258h0a58.07,58.07,0,0,1,7.94,3.31,41.38,41.38,0,0,1,63.64,0,58.59,58.59,0,0,1,7.94-3.31C469.61,231.82,428.13,231.82,409.11,258Zm29.57,8.5a22.11,22.11,0,0,1,26.9,5.29,57,57,0,0,1,6.61-5.49,31.12,31.12,0,0,0-43.94-2.63,29.67,29.67,0,0,0-2.63,2.63,57.9,57.9,0,0,1,6.62,5.49A21.23,21.23,0,0,1,438.68,266.45Zm-29.57-61.33h0a59.35,59.35,0,0,1,7.94,3.31,41.42,41.42,0,0,1,58.33-5.31,41,41,0,0,1,5.31,5.31,59.9,59.9,0,0,1,7.94-3.31C469.61,178.9,428.13,178.9,409.11,205.12Zm29.57,8.51a22.11,22.11,0,0,1,26.9,5.29,57,57,0,0,1,6.61-5.49,31.07,31.07,0,0,0-46.57,0,57.9,57.9,0,0,1,6.62,5.49A21.09,21.09,0,0,1,438.68,213.63ZM438,278.42q1.37,1.81,2.55,3.74a61.07,61.07,0,0,1,16.54,0q1.18-1.92,2.55-3.74a12.48,12.48,0,0,0-21.64,0Zm143.82-17.83a31.16,31.16,0,0,0-40.12,5.66,57,57,0,0,1,6.61,5.49,22.11,22.11,0,0,1,31.17-2.28,23.26,23.26,0,0,1,2.27,2.28,57.9,57.9,0,0,1,6.62-5.49,29.79,29.79,0,0,0-6.58-5.69Zm-8.57,21.54c.8-1.28,1.64-2.53,2.55-3.74a12.47,12.47,0,0,0-21.67,0q1.36,1.82,2.55,3.74A61.3,61.3,0,0,1,573.27,282.13Zm23.55-21a58.59,58.59,0,0,1,7.94-3.31c-18.92-26-60.56-26-79.55.13a58.07,58.07,0,0,1,7.94,3.31,41.37,41.37,0,0,1,63.67-.13ZM351,231.52h0a58.59,58.59,0,0,1,7.94,3.31,41.41,41.41,0,0,1,63.64,0,58.07,58.07,0,0,1,7.94-3.31C411.56,205.36,370.05,205.36,351,231.52Zm29.57,8.5a22.09,22.09,0,0,1,26.89,5.29,59,59,0,0,1,6.62-5.49,31.13,31.13,0,0,0-43.94-2.6,31.89,31.89,0,0,0-2.6,2.6,58,58,0,0,1,6.61,5.49A21.27,21.27,0,0,1,380.6,240ZM351,178.7h0a59.85,59.85,0,0,1,7.94,3.3,41.41,41.41,0,0,1,58.32-5.31,42.36,42.36,0,0,1,5.32,5.31,59.3,59.3,0,0,1,7.94-3.3C411.56,152.43,370.05,152.43,351,178.7ZM379.94,252c.91,1.22,1.75,2.46,2.55,3.74a61.07,61.07,0,0,1,16.54,0c.79-1.28,1.64-2.52,2.54-3.74a12.51,12.51,0,0,0-21.63,0Zm.66-64.79a22.09,22.09,0,0,1,26.89,5.29,57.9,57.9,0,0,1,6.62-5.49,31.12,31.12,0,0,0-43.94-2.63,29.67,29.67,0,0,0-2.63,2.63,57,57,0,0,1,6.61,5.49,21.3,21.3,0,0,1,6.45-5.26Zm-.66,12c.91,1.21,1.75,2.46,2.55,3.74a61.07,61.07,0,0,1,16.54,0q1.19-1.92,2.54-3.74a12.51,12.51,0,0,0-21.63,0Zm143.82,35a31.15,31.15,0,0,0-40.12,5.65,58.86,58.86,0,0,1,6.61,5.49A22.09,22.09,0,0,1,521.41,243a21.25,21.25,0,0,1,2.28,2.27,59,59,0,0,1,6.62-5.49A29.94,29.94,0,0,0,523.76,234.17Zm-8.54-31.26q1.2-1.92,2.55-3.74a12.49,12.49,0,0,0-21.66,0q1.35,1.82,2.54,3.74a61.07,61.07,0,0,1,16.54,0Zm0,52.92c.8-1.28,1.65-2.52,2.55-3.74a12.49,12.49,0,0,0-21.66,0c.9,1.22,1.75,2.46,2.54,3.74a61.48,61.48,0,0,1,16.54-.1Zm23.55,31.82a60.47,60.47,0,0,1,7.94-3.31c-19-26.06-60.59-26.06-79.58,0a58.54,58.54,0,0,1,7.94,3.3,41.41,41.41,0,0,1,63.67-.13Zm-15-106.31A31.16,31.16,0,0,0,483.64,187a57.8,57.8,0,0,1,6.61,5.49,22.09,22.09,0,0,1,33.44,0,57.9,57.9,0,0,1,6.62-5.49A30,30,0,0,0,523.76,181.34Zm15,53.39a59.13,59.13,0,0,1,7.94-3.31c-19-26.06-60.59-26.06-79.58.13a59.9,59.9,0,0,1,7.94,3.31,41.41,41.41,0,0,1,63.67-.13Zm0-52.92a59.13,59.13,0,0,1,7.94-3.31c-19-26.07-60.59-26.07-79.58.4a58.54,58.54,0,0,1,7.94,3.3,41.41,41.41,0,0,1,63.67-.29Zm-42.7,123c.91,1.21,1.76,2.46,2.55,3.73a61.89,61.89,0,0,1,16.54,0c.79-1.27,1.64-2.52,2.54-3.73a12.5,12.5,0,0,0-21.63,0Zm27.59-6.62a57,57,0,0,1,6.61-5.49A31.09,31.09,0,0,0,486.38,290a32.27,32.27,0,0,0-2.68,2.68,57.9,57.9,0,0,1,6.62,5.49A22.09,22.09,0,0,1,521.49,296a21.41,21.41,0,0,1,2.13,2.13Z"/><path class="cls-5" d="M832.82,208.33a58.54,58.54,0,0,1,7.94-3.3c-18.92-26.13-60.56-26.13-79.55.13a58.07,58.07,0,0,1,7.94,3.31,41.4,41.4,0,0,1,63.67-.14Zm-23.55,21c.8-1.28,1.64-2.52,2.55-3.73a12.51,12.51,0,0,0-21.67,0q1.36,1.81,2.55,3.73A61.3,61.3,0,0,1,809.27,229.3Zm8.54-21.56a31.16,31.16,0,0,0-40.13,5.65,59,59,0,0,1,6.62,5.49,22.09,22.09,0,0,1,31.16-2.27,21.25,21.25,0,0,1,2.28,2.27,58.86,58.86,0,0,1,6.61-5.49A29.66,29.66,0,0,0,817.81,207.74Zm15,106.21a58.59,58.59,0,0,1,7.94-3.31c-19-26.26-60.56-26.26-79.55,0a58.07,58.07,0,0,1,7.94,3.31,41.41,41.41,0,0,1,58.32-5.33,40.44,40.44,0,0,1,5.35,5.36ZM674.06,225.57q1.35,1.81,2.54,3.73a61.89,61.89,0,0,1,16.54,0c.8-1.28,1.64-2.52,2.55-3.73a12.51,12.51,0,0,0-21.67,0ZM645.11,258h0a58.07,58.07,0,0,1,7.94,3.31,41.38,41.38,0,0,1,63.64,0,58.59,58.59,0,0,1,7.94-3.31C705.61,231.82,664.13,231.82,645.11,258Zm29.57,8.5a22.11,22.11,0,0,1,26.9,5.29,57,57,0,0,1,6.61-5.49,31.12,31.12,0,0,0-43.94-2.63,29.67,29.67,0,0,0-2.63,2.63,57.9,57.9,0,0,1,6.62,5.49A21.23,21.23,0,0,1,674.68,266.45Zm-29.57-61.33h0a59.35,59.35,0,0,1,7.94,3.31,41.42,41.42,0,0,1,58.33-5.31,41,41,0,0,1,5.31,5.31,59.9,59.9,0,0,1,7.94-3.31C705.61,178.9,664.13,178.9,645.11,205.12Zm29.57,8.51a22.11,22.11,0,0,1,26.9,5.29,57,57,0,0,1,6.61-5.49,31.07,31.07,0,0,0-46.57,0,57.9,57.9,0,0,1,6.62,5.49A21.09,21.09,0,0,1,674.68,213.63ZM674,278.42q1.37,1.81,2.55,3.74a61.07,61.07,0,0,1,16.54,0q1.18-1.92,2.55-3.74a12.48,12.48,0,0,0-21.64,0Zm143.82-17.83a31.16,31.16,0,0,0-40.12,5.66,57,57,0,0,1,6.61,5.49,22.11,22.11,0,0,1,31.17-2.28,23.26,23.26,0,0,1,2.27,2.28,57.9,57.9,0,0,1,6.62-5.49,29.79,29.79,0,0,0-6.58-5.69Zm-8.57,21.54c.8-1.28,1.64-2.53,2.55-3.74a12.47,12.47,0,0,0-21.67,0q1.36,1.82,2.55,3.74A61.3,61.3,0,0,1,809.27,282.13Zm23.55-21a58.59,58.59,0,0,1,7.94-3.31c-18.92-26-60.56-26-79.55.13a58.07,58.07,0,0,1,7.94,3.31,41.37,41.37,0,0,1,63.67-.13ZM587,231.52h0a58.59,58.59,0,0,1,7.94,3.31,41.41,41.41,0,0,1,63.64,0,58.07,58.07,0,0,1,7.94-3.31C647.56,205.36,606.05,205.36,587,231.52Zm29.57,8.5a22.09,22.09,0,0,1,26.89,5.29,59,59,0,0,1,6.62-5.49,31.13,31.13,0,0,0-43.94-2.6,31.89,31.89,0,0,0-2.6,2.6,58,58,0,0,1,6.61,5.49A21.27,21.27,0,0,1,616.6,240ZM587,284.34h0a59.9,59.9,0,0,1,7.94,3.31,41.41,41.41,0,0,1,63.64,0,59.35,59.35,0,0,1,7.94-3.31C647.56,258.08,606.05,258.28,587,284.34Zm0-105.64h0a59.85,59.85,0,0,1,7.94,3.3,41.41,41.41,0,0,1,58.32-5.31,42.36,42.36,0,0,1,5.32,5.31,59.3,59.3,0,0,1,7.94-3.3C647.56,152.43,606.05,152.43,587,178.7ZM615.94,252c.91,1.22,1.75,2.46,2.55,3.74a61.07,61.07,0,0,1,16.54,0c.79-1.28,1.64-2.52,2.54-3.74a12.51,12.51,0,0,0-21.63,0Zm.66-64.79a22.09,22.09,0,0,1,26.89,5.29,57.9,57.9,0,0,1,6.62-5.49,31.12,31.12,0,0,0-43.94-2.63,29.67,29.67,0,0,0-2.63,2.63,57,57,0,0,1,6.61,5.49,21.3,21.3,0,0,1,6.45-5.26Zm-.66,12c.91,1.21,1.75,2.46,2.55,3.74a61.07,61.07,0,0,1,16.54,0q1.19-1.92,2.54-3.74a12.51,12.51,0,0,0-21.63,0Zm0,105.65c.91,1.21,1.75,2.46,2.55,3.73a61.89,61.89,0,0,1,16.54,0c.79-1.27,1.64-2.52,2.54-3.73a12.5,12.5,0,0,0-21.63,0Zm.66-12a22.08,22.08,0,0,1,26.89,5.3,58,58,0,0,1,6.62-5.5A31.13,31.13,0,0,0,606.17,290a32.63,32.63,0,0,0-2.63,2.63,57,57,0,0,1,6.61,5.5A21.16,21.16,0,0,1,616.6,292.84Zm143.16-58.67a31.15,31.15,0,0,0-40.12,5.65,58.86,58.86,0,0,1,6.61,5.49A22.09,22.09,0,0,1,757.41,243a21.25,21.25,0,0,1,2.28,2.27,59,59,0,0,1,6.62-5.49A29.94,29.94,0,0,0,759.76,234.17Zm-8.54-31.26q1.2-1.92,2.55-3.74a12.49,12.49,0,0,0-21.66,0q1.35,1.82,2.54,3.74a61.07,61.07,0,0,1,16.54,0Zm0,52.92c.8-1.28,1.65-2.52,2.55-3.74a12.49,12.49,0,0,0-21.66,0c.9,1.22,1.75,2.46,2.54,3.74a61.48,61.48,0,0,1,16.54-.1Zm23.55,31.82a60.47,60.47,0,0,1,7.94-3.31c-19-26.06-60.59-26.06-79.58,0a58.54,58.54,0,0,1,7.94,3.3,41.41,41.41,0,0,1,63.67-.13Zm-15-106.31A31.16,31.16,0,0,0,719.64,187a57.8,57.8,0,0,1,6.61,5.49,22.09,22.09,0,0,1,33.44,0,57.9,57.9,0,0,1,6.62-5.49A30,30,0,0,0,759.76,181.34Zm15,53.39a59.13,59.13,0,0,1,7.94-3.31c-19-26.06-60.59-26.06-79.58.13a59.9,59.9,0,0,1,7.94,3.31,41.41,41.41,0,0,1,63.67-.13Zm0-52.92a59.13,59.13,0,0,1,7.94-3.31c-19-26.07-60.59-26.07-79.58.4a58.54,58.54,0,0,1,7.94,3.3,41.41,41.41,0,0,1,63.67-.29Zm-42.7,123c.91,1.21,1.76,2.46,2.55,3.73a61.89,61.89,0,0,1,16.54,0c.79-1.27,1.64-2.52,2.54-3.73a12.5,12.5,0,0,0-21.63,0Zm85.64,19.84a57,57,0,0,1,6.61-5.49,31.09,31.09,0,0,0-43.89-2.68,32.27,32.27,0,0,0-2.68,2.68,57.9,57.9,0,0,1,6.62,5.49,22.08,22.08,0,0,1,31.15-2.38,21.16,21.16,0,0,1,2.19,2.15Zm-27.56,6.62q1.36,1.82,2.55,3.74a61.07,61.07,0,0,1,16.54,0q1.18-1.92,2.55-3.74a12.51,12.51,0,0,0-21.64,0ZM759.66,298.2a57,57,0,0,1,6.61-5.49A31.09,31.09,0,0,0,722.38,290a32.27,32.27,0,0,0-2.68,2.68,57.9,57.9,0,0,1,6.62,5.49A22.09,22.09,0,0,1,757.49,296a21.41,21.41,0,0,1,2.13,2.13Z"/><path class="cls-6" d="M950.82,155a58.59,58.59,0,0,1,7.94-3.31c-19-26.26-60.56-26.26-79.55,0a58.07,58.07,0,0,1,7.94,3.31,41.41,41.41,0,0,1,58.32-5.33,40.44,40.44,0,0,1,5.35,5.36ZM792.06,66.57q1.35,1.82,2.54,3.73a61.89,61.89,0,0,1,16.54,0c.8-1.28,1.64-2.52,2.55-3.73a12.51,12.51,0,0,0-21.67,0ZM763.11,99h0a58.07,58.07,0,0,1,7.94,3.31,41.38,41.38,0,0,1,63.64,0A58.59,58.59,0,0,1,842.63,99C823.61,72.82,782.13,72.82,763.11,99Zm29.57,8.5a22.11,22.11,0,0,1,26.9,5.29,57,57,0,0,1,6.61-5.49,31.12,31.12,0,0,0-43.94-2.63,29.67,29.67,0,0,0-2.63,2.63,57.9,57.9,0,0,1,6.62,5.49A21.23,21.23,0,0,1,792.68,107.45ZM763.11,46.12h0a59.35,59.35,0,0,1,7.94,3.31,41.42,41.42,0,0,1,58.33-5.31,41,41,0,0,1,5.31,5.31,59.9,59.9,0,0,1,7.94-3.31C823.61,19.9,782.13,19.9,763.11,46.12Zm29.57,8.51a22.11,22.11,0,0,1,26.9,5.29,57,57,0,0,1,6.61-5.49,31.07,31.07,0,0,0-46.57,0,57.9,57.9,0,0,1,6.62,5.49A21.09,21.09,0,0,1,792.68,54.63ZM792,119.42q1.37,1.81,2.55,3.74a61.07,61.07,0,0,1,16.54,0q1.18-1.92,2.55-3.74a12.48,12.48,0,0,0-21.64,0Zm143.82-17.83a31.16,31.16,0,0,0-40.12,5.66,57,57,0,0,1,6.61,5.49,22.11,22.11,0,0,1,31.17-2.28,23.26,23.26,0,0,1,2.27,2.28,57.9,57.9,0,0,1,6.62-5.49,29.79,29.79,0,0,0-6.58-5.69ZM763.11,151.77h0a58.07,58.07,0,0,1,7.94,3.31,41.38,41.38,0,0,1,63.64,0,58.59,58.59,0,0,1,7.94-3.31C823.61,125.51,782.13,125.74,763.11,151.77Zm164.16-28.64c.8-1.28,1.64-2.53,2.55-3.74a12.47,12.47,0,0,0-21.67,0q1.36,1.81,2.55,3.74A61.3,61.3,0,0,1,927.27,123.13Zm23.55-21a58.59,58.59,0,0,1,7.94-3.31c-18.92-26-60.56-26-79.55.13a58.07,58.07,0,0,1,7.94,3.31,41.37,41.37,0,0,1,63.67-.13ZM705,72.52h0a58.59,58.59,0,0,1,7.94,3.31,41.41,41.41,0,0,1,63.64,0,58.07,58.07,0,0,1,7.94-3.31C765.56,46.36,724.05,46.36,705,72.52ZM734.57,81a22.09,22.09,0,0,1,26.89,5.29,59,59,0,0,1,6.62-5.49,31.13,31.13,0,0,0-43.94-2.6,31.89,31.89,0,0,0-2.6,2.6,58,58,0,0,1,6.61,5.49A21.27,21.27,0,0,1,734.6,81ZM705,125.34h0a59.9,59.9,0,0,1,7.94,3.31,41.41,41.41,0,0,1,63.64,0,59.35,59.35,0,0,1,7.94-3.31C765.56,99.08,724.05,99.28,705,125.34ZM705,19.7h0a59.85,59.85,0,0,1,7.94,3.3,41.41,41.41,0,0,1,58.32-5.31A42.36,42.36,0,0,1,776.58,23a59.3,59.3,0,0,1,7.94-3.3C765.56-6.57,724.05-6.57,705,19.7ZM733.94,93c.91,1.22,1.75,2.46,2.55,3.74a61.07,61.07,0,0,1,16.54,0c.79-1.28,1.64-2.52,2.54-3.74a12.51,12.51,0,0,0-21.63,0Zm.66-64.79a22.09,22.09,0,0,1,26.89,5.29A57.9,57.9,0,0,1,768.11,28a31.12,31.12,0,0,0-43.94-2.63A29.67,29.67,0,0,0,721.54,28a57,57,0,0,1,6.61,5.49,21.3,21.3,0,0,1,6.45-5.26Zm-.66,12c.91,1.21,1.75,2.46,2.55,3.74a61.07,61.07,0,0,1,16.54,0q1.19-1.92,2.54-3.74a12.51,12.51,0,0,0-21.63,0Zm0,105.65c.91,1.21,1.75,2.46,2.55,3.73a61.89,61.89,0,0,1,16.54,0c.79-1.27,1.64-2.52,2.54-3.73a12.5,12.5,0,0,0-21.63,0Zm.66-12a22.08,22.08,0,0,1,26.89,5.3,58,58,0,0,1,6.62-5.5A31.13,31.13,0,0,0,724.17,131a32.63,32.63,0,0,0-2.63,2.63,57,57,0,0,1,6.61,5.5A21.16,21.16,0,0,1,734.6,133.84ZM877.76,75.17a31.15,31.15,0,0,0-40.12,5.65,58.86,58.86,0,0,1,6.61,5.49A22.09,22.09,0,0,1,875.41,84a21.25,21.25,0,0,1,2.28,2.27,59,59,0,0,1,6.62-5.49A29.94,29.94,0,0,0,877.76,75.17Zm-8.54-31.26q1.2-1.92,2.55-3.74a12.49,12.49,0,0,0-21.66,0q1.35,1.81,2.54,3.74a61.07,61.07,0,0,1,16.54,0Zm0,52.92c.8-1.28,1.65-2.52,2.55-3.74a12.49,12.49,0,0,0-21.66,0c.9,1.22,1.75,2.46,2.54,3.74a61.48,61.48,0,0,1,16.54-.1Zm23.55,31.82a60.47,60.47,0,0,1,7.94-3.31c-19-26.06-60.59-26.06-79.58,0a58.54,58.54,0,0,1,7.94,3.3,41.41,41.41,0,0,1,63.67-.13Zm-15-106.31A31.16,31.16,0,0,0,837.64,28a57.8,57.8,0,0,1,6.61,5.49,22.09,22.09,0,0,1,33.44,0A57.9,57.9,0,0,1,884.31,28,30,30,0,0,0,877.76,22.34Zm15,53.39a59.13,59.13,0,0,1,7.94-3.31c-19-26.06-60.59-26.06-79.58.13a59.9,59.9,0,0,1,7.94,3.31,41.41,41.41,0,0,1,63.67-.13Zm0-52.92a59.13,59.13,0,0,1,7.94-3.31c-19-26.07-60.59-26.07-79.58.4a58.54,58.54,0,0,1,7.94,3.3,41.41,41.41,0,0,1,63.67-.29Zm-42.7,123c.91,1.21,1.76,2.46,2.55,3.73a61.89,61.89,0,0,1,16.54,0c.79-1.27,1.64-2.52,2.54-3.73a12.5,12.5,0,0,0-21.63,0Zm85.64,19.84a57,57,0,0,1,6.61-5.49,31.09,31.09,0,0,0-43.89-2.68,32.27,32.27,0,0,0-2.68,2.68,57.9,57.9,0,0,1,6.62,5.49,22.08,22.08,0,0,1,31.15-2.38,21.16,21.16,0,0,1,2.19,2.15Zm-27.56,6.62q1.36,1.82,2.55,3.74a61.07,61.07,0,0,1,16.54,0q1.18-1.92,2.55-3.74a12.51,12.51,0,0,0-21.64,0Zm-116.13,0q1.37,1.82,2.55,3.74a61.07,61.07,0,0,1,16.54,0q1.18-1.92,2.55-3.74a12.51,12.51,0,0,0-21.64,0Zm27.56-6.62a57,57,0,0,1,6.61-5.49,31.12,31.12,0,0,0-43.94-2.63,29.67,29.67,0,0,0-2.63,2.63,57.9,57.9,0,0,1,6.62,5.49,22.08,22.08,0,0,1,31.15-2.38,21.16,21.16,0,0,1,2.19,2.15Zm58.08-26.46a57,57,0,0,1,6.61-5.49A31.09,31.09,0,0,0,840.38,131a32.27,32.27,0,0,0-2.68,2.68,57.9,57.9,0,0,1,6.62,5.49A22.09,22.09,0,0,1,875.49,137a21.41,21.41,0,0,1,2.13,2.13Z"/><path class="cls-7" d="M877.61,259.45h0a58.07,58.07,0,0,1,7.94,3.31,41.38,41.38,0,0,1,63.64,0,58.59,58.59,0,0,1,7.94-3.31C938.11,233.32,896.63,233.32,877.61,259.45Zm29.57,8.5a22.11,22.11,0,0,1,26.9,5.29,57,57,0,0,1,6.61-5.49,31.12,31.12,0,0,0-43.94-2.63,29.67,29.67,0,0,0-2.63,2.63,57.9,57.9,0,0,1,6.62,5.49A21.23,21.23,0,0,1,907.18,268Zm-.66,12q1.37,1.81,2.55,3.74a61.07,61.07,0,0,1,16.54,0q1.18-1.92,2.55-3.74a12.48,12.48,0,0,0-21.64,0Zm-87-46.9h0a58.59,58.59,0,0,1,7.94,3.31,41.41,41.41,0,0,1,63.64,0A58.07,58.07,0,0,1,899,233C880.06,206.86,838.55,206.86,819.5,233Zm29.57,8.5A22.09,22.09,0,0,1,876,246.81a59,59,0,0,1,6.62-5.49,31.13,31.13,0,0,0-43.94-2.6,31.89,31.89,0,0,0-2.6,2.6,58,58,0,0,1,6.61,5.49,21.27,21.27,0,0,1,6.45-5.29ZM819.5,285.84h0a59.9,59.9,0,0,1,7.94,3.31,41.41,41.41,0,0,1,63.64,0,59.35,59.35,0,0,1,7.94-3.31C880.06,259.58,838.55,259.78,819.5,285.84Zm0-105.64h0a59.85,59.85,0,0,1,7.94,3.3,41.41,41.41,0,0,1,58.32-5.31,42.36,42.36,0,0,1,5.32,5.31,59.3,59.3,0,0,1,7.94-3.3C880.06,153.93,838.55,153.93,819.5,180.2Zm28.94,73.29c.91,1.22,1.75,2.46,2.55,3.74a61.07,61.07,0,0,1,16.54,0c.79-1.28,1.64-2.52,2.54-3.74a12.51,12.51,0,0,0-21.63,0Zm.66-64.79A22.09,22.09,0,0,1,876,194a57.9,57.9,0,0,1,6.62-5.49,31.12,31.12,0,0,0-43.94-2.63A29.67,29.67,0,0,0,836,188.5a57,57,0,0,1,6.61,5.49,21.3,21.3,0,0,1,6.45-5.26Zm-.66,12c.91,1.21,1.75,2.46,2.55,3.74a61.07,61.07,0,0,1,16.54,0q1.19-1.92,2.54-3.74a12.51,12.51,0,0,0-21.63,0Zm0,105.65c.91,1.21,1.75,2.46,2.55,3.73a61.89,61.89,0,0,1,16.54,0c.79-1.27,1.64-2.52,2.54-3.73a12.5,12.5,0,0,0-21.63,0Zm.66-12a22.08,22.08,0,0,1,26.89,5.3,58,58,0,0,1,6.62-5.5,31.13,31.13,0,0,0-43.94-2.63,32.63,32.63,0,0,0-2.63,2.63,57,57,0,0,1,6.61,5.5A21.16,21.16,0,0,1,849.1,294.34Z"/><path class="cls-8" d="M716.82,49.33a58.54,58.54,0,0,1,7.94-3.3c-18.92-26.13-60.56-26.13-79.55.13a58.07,58.07,0,0,1,7.94,3.31,41.4,41.4,0,0,1,63.67-.14Zm-23.55,21c.8-1.28,1.64-2.52,2.55-3.73a12.51,12.51,0,0,0-21.67,0q1.36,1.82,2.55,3.73A61.3,61.3,0,0,1,693.27,70.3Zm8.54-21.56a31.16,31.16,0,0,0-40.13,5.65,59,59,0,0,1,6.62,5.49,22.09,22.09,0,0,1,31.16-2.27,21.25,21.25,0,0,1,2.28,2.27,58.86,58.86,0,0,1,6.61-5.49A29.66,29.66,0,0,0,701.81,48.74Zm15,106.21a58.59,58.59,0,0,1,7.94-3.31c-19-26.26-60.56-26.26-79.55,0a58.07,58.07,0,0,1,7.94,3.31,41.41,41.41,0,0,1,58.32-5.33,40.44,40.44,0,0,1,5.35,5.36ZM558.06,66.57q1.35,1.82,2.54,3.73a61.89,61.89,0,0,1,16.54,0c.8-1.28,1.64-2.52,2.55-3.73a12.51,12.51,0,0,0-21.67,0ZM529.11,99h0a58.07,58.07,0,0,1,7.94,3.31,41.38,41.38,0,0,1,63.64,0A58.59,58.59,0,0,1,608.63,99C589.61,72.82,548.13,72.82,529.11,99Zm29.57,8.5a22.11,22.11,0,0,1,26.9,5.29,57,57,0,0,1,6.61-5.49,31.12,31.12,0,0,0-43.94-2.63,29.67,29.67,0,0,0-2.63,2.63,57.9,57.9,0,0,1,6.62,5.49A21.23,21.23,0,0,1,558.68,107.45ZM529.11,46.12h0a59.35,59.35,0,0,1,7.94,3.31,41.42,41.42,0,0,1,58.33-5.31,41,41,0,0,1,5.31,5.31,59.9,59.9,0,0,1,7.94-3.31C589.61,19.9,548.13,19.9,529.11,46.12Zm29.57,8.51a22.11,22.11,0,0,1,26.9,5.29,57,57,0,0,1,6.61-5.49,31.07,31.07,0,0,0-46.57,0,57.9,57.9,0,0,1,6.62,5.49A21.09,21.09,0,0,1,558.68,54.63ZM558,119.42q1.37,1.81,2.55,3.74a61.07,61.07,0,0,1,16.54,0q1.18-1.92,2.55-3.74a12.48,12.48,0,0,0-21.64,0Zm143.82-17.83a31.16,31.16,0,0,0-40.12,5.66,57,57,0,0,1,6.61,5.49,22.11,22.11,0,0,1,31.17-2.28,23.26,23.26,0,0,1,2.27,2.28,57.9,57.9,0,0,1,6.62-5.49,29.79,29.79,0,0,0-6.58-5.69ZM529.11,151.77h0a58.07,58.07,0,0,1,7.94,3.31,41.38,41.38,0,0,1,63.64,0,58.59,58.59,0,0,1,7.94-3.31C589.61,125.51,548.13,125.74,529.11,151.77Zm164.16-28.64c.8-1.28,1.64-2.53,2.55-3.74a12.47,12.47,0,0,0-21.67,0q1.36,1.81,2.55,3.74A61.3,61.3,0,0,1,693.27,123.13Zm23.55-21a58.59,58.59,0,0,1,7.94-3.31c-18.92-26-60.56-26-79.55.13a58.07,58.07,0,0,1,7.94,3.31,41.37,41.37,0,0,1,63.67-.13ZM471,72.52h0a58.59,58.59,0,0,1,7.94,3.31,41.41,41.41,0,0,1,63.64,0,58.07,58.07,0,0,1,7.94-3.31C531.56,46.36,490.05,46.36,471,72.52ZM500.57,81a22.09,22.09,0,0,1,26.89,5.29,59,59,0,0,1,6.62-5.49,31.13,31.13,0,0,0-43.94-2.6,31.89,31.89,0,0,0-2.6,2.6,58,58,0,0,1,6.61,5.49A21.27,21.27,0,0,1,500.6,81ZM471,125.34h0a59.9,59.9,0,0,1,7.94,3.31,41.41,41.41,0,0,1,63.64,0,59.35,59.35,0,0,1,7.94-3.31C531.56,99.08,490.05,99.28,471,125.34ZM471,19.7h0a59.85,59.85,0,0,1,7.94,3.3,41.41,41.41,0,0,1,58.32-5.31A42.36,42.36,0,0,1,542.58,23a59.3,59.3,0,0,1,7.94-3.3C531.56-6.57,490.05-6.57,471,19.7ZM499.94,93c.91,1.22,1.75,2.46,2.55,3.74a61.07,61.07,0,0,1,16.54,0c.79-1.28,1.64-2.52,2.54-3.74a12.51,12.51,0,0,0-21.63,0Zm.66-64.79a22.09,22.09,0,0,1,26.89,5.29A57.9,57.9,0,0,1,534.11,28a31.12,31.12,0,0,0-43.94-2.63A29.67,29.67,0,0,0,487.54,28a57,57,0,0,1,6.61,5.49,21.3,21.3,0,0,1,6.45-5.26Zm-.66,12c.91,1.21,1.75,2.46,2.55,3.74a61.07,61.07,0,0,1,16.54,0q1.19-1.92,2.54-3.74a12.51,12.51,0,0,0-21.63,0Zm0,105.65c.91,1.21,1.75,2.46,2.55,3.73a61.89,61.89,0,0,1,16.54,0c.79-1.27,1.64-2.52,2.54-3.73a12.5,12.5,0,0,0-21.63,0Zm.66-12a22.08,22.08,0,0,1,26.89,5.3,58,58,0,0,1,6.62-5.5A31.13,31.13,0,0,0,490.17,131a32.63,32.63,0,0,0-2.63,2.63,57,57,0,0,1,6.61,5.5A21.16,21.16,0,0,1,500.6,133.84ZM643.76,75.17a31.15,31.15,0,0,0-40.12,5.65,58.86,58.86,0,0,1,6.61,5.49A22.09,22.09,0,0,1,641.41,84a21.25,21.25,0,0,1,2.28,2.27,59,59,0,0,1,6.62-5.49A29.94,29.94,0,0,0,643.76,75.17Zm-8.54-31.26q1.2-1.92,2.55-3.74a12.49,12.49,0,0,0-21.66,0q1.35,1.81,2.54,3.74a61.07,61.07,0,0,1,16.54,0Zm0,52.92c.8-1.28,1.65-2.52,2.55-3.74a12.49,12.49,0,0,0-21.66,0c.9,1.22,1.75,2.46,2.54,3.74a61.48,61.48,0,0,1,16.54-.1Zm23.55,31.82a60.47,60.47,0,0,1,7.94-3.31c-19-26.06-60.59-26.06-79.58,0a58.54,58.54,0,0,1,7.94,3.3,41.41,41.41,0,0,1,63.67-.13Zm-15-106.31A31.16,31.16,0,0,0,603.64,28a57.8,57.8,0,0,1,6.61,5.49,22.09,22.09,0,0,1,33.44,0A57.9,57.9,0,0,1,650.31,28,30,30,0,0,0,643.76,22.34Zm15,53.39a59.13,59.13,0,0,1,7.94-3.31c-19-26.06-60.59-26.06-79.58.13a59.9,59.9,0,0,1,7.94,3.31,41.41,41.41,0,0,1,63.67-.13Zm0-52.92a59.13,59.13,0,0,1,7.94-3.31c-19-26.07-60.59-26.07-79.58.4a58.54,58.54,0,0,1,7.94,3.3,41.41,41.41,0,0,1,63.67-.29Zm-42.7,123c.91,1.21,1.76,2.46,2.55,3.73a61.89,61.89,0,0,1,16.54,0c.79-1.27,1.64-2.52,2.54-3.73a12.5,12.5,0,0,0-21.63,0Zm85.64,19.84a57,57,0,0,1,6.61-5.49,31.09,31.09,0,0,0-43.89-2.68,32.27,32.27,0,0,0-2.68,2.68,57.9,57.9,0,0,1,6.62,5.49,22.08,22.08,0,0,1,31.15-2.38,21.16,21.16,0,0,1,2.19,2.15Zm-27.56,6.62q1.36,1.82,2.55,3.74a61.07,61.07,0,0,1,16.54,0q1.18-1.92,2.55-3.74a12.51,12.51,0,0,0-21.64,0Zm-116.13,0q1.37,1.82,2.55,3.74a61.07,61.07,0,0,1,16.54,0q1.18-1.92,2.55-3.74a12.51,12.51,0,0,0-21.64,0Zm27.56-6.62a57,57,0,0,1,6.61-5.49,31.12,31.12,0,0,0-43.94-2.63,29.67,29.67,0,0,0-2.63,2.63,57.9,57.9,0,0,1,6.62,5.49,22.08,22.08,0,0,1,31.15-2.38,21.16,21.16,0,0,1,2.19,2.15Zm58.08-26.46a57,57,0,0,1,6.61-5.49A31.09,31.09,0,0,0,606.38,131a32.27,32.27,0,0,0-2.68,2.68,57.9,57.9,0,0,1,6.62,5.49A22.09,22.09,0,0,1,641.49,137a21.41,21.41,0,0,1,2.13,2.13Z"/></g></g></svg>